<?xml version="1.0" encoding="UTF-8"?>
<svg version="1.1" viewBox="0 0 1000 737" xmlns="http://www.w3.org/2000/svg" xmlnsCc="http://creativecommons.org/ns#" xmlnsDc="http://purl.org/dc/elements/1.1/" xmlnsRdf="http://www.w3.org/1999/02/22-rdf-syntax-ns#">
<metadata>
<rdfRDF>
<ccWork rdfAbout="">
<dcFormat>image/svg+xml</dcFormat>
<dcType rdfResource="http://purl.org/dc/dcmitype/StillImage"/>
<dcTitle/>
</ccWork>
</rdfRDF>
</metadata>
<path d="m463.24 690.9c-5.0922-0.38622-19.381-0.94583-31.753-1.2436-12.372-0.29775-22.831-0.74297-23.241-0.98937-0.41086-0.24641-4.122-0.73509-8.247-1.086-13.37-1.1373-17.399-1.7726-23.415-3.6927-3.2533-1.0382-7.3467-1.8877-9.0964-1.8877-1.7497 0-4.6677-0.74157-6.4846-1.6479-1.8168-0.90636-4.6852-1.6086-6.3742-1.5606-1.689 0.048-3.5481-0.30874-4.1314-0.79281s-2.1715-1.0951-3.5294-1.3578c-4.5999-0.89005-27.431-8.8581-33.969-11.855-8.6416-3.9614-16.696-6.7567-17.41-6.0425-0.31779 0.31779-1.3681-0.0934-2.3339-0.91382-1.5412-1.3091-31.688-14.431-39.756-17.305-1.65-0.58769-5.4603-2.8586-8.4674-5.0465-3.0071-2.1879-5.7071-3.9937-6-4.0129-0.29293-0.0192-4.8076-2.0737-10.033-4.5655-5.225-2.4918-13.1-6.0746-17.5-7.9617-16.751-7.1844-40.5-20.694-40.5-23.038 0-0.49495-0.58877-0.89991-1.3084-0.89991-1.6767 0-19.69-13.693-26.07-19.817-5.8321-5.5982-14.832-14.056-17.327-16.285-3.2816-2.9305-7.5468-8.3663-8.5511-10.898-0.54543-1.375-1.3701-3.4-1.8327-4.5-5.1464-12.239-8.0301-26.006-7.3731-35.2 0.99559-13.933 1.4007-17.064 2.5818-19.955 3.3097-8.1008 4.0793-10.011 4.7716-11.845 0.41524-1.1 1.9598-4.4821 3.4324-7.5158s2.6774-6.0712 2.6774-6.75 0.3375-1.2358 0.75-1.2379c0.4125-2e-3 1.6274-2.1396 2.6998-4.75 3.1217-7.5989 15.281-24.857 23.404-33.22 2.39-2.4604 4.8632-5.1781 5.4958-6.0394 1.6438-2.238 16.006-14.572 18.559-15.939 1.1791-0.63105 7.4175-4.9502 13.863-9.598 6.4455-4.6478 12.297-8.4506 13.004-8.4506 0.70673 0 4.5094-1.8272 8.4504-4.0604 3.941-2.2332 9.4685-5.1138 12.283-6.4014 6.9338-3.1716 30.012-12.538 30.892-12.538 0.38907 0 2.6108-0.86711 4.9372-1.9269 2.3264-1.0598 5.4166-2.2248 6.8671-2.5888l2.6373-0.66191-3.3128-7.6612c-7.5026-17.35-8.8735-20.765-11.216-27.938-2.2195-6.7956-6.7709-23.71-7.7288-28.723-0.2102-1.1-1.0962-5.4357-1.969-9.6348-2.8717-13.817-4.5901-35.938-4.7668-61.365-0.0956-13.75 0.11127-27.475 0.45971-30.5s0.87689-7.975 1.1743-11c0.29743-3.025 1.2275-9.2275 2.0668-13.783 0.8393-4.5558 1.2886-8.6673 0.99854-9.1367-0.2901-0.46939 0.0796-1.3573 0.82164-1.9731 0.76378-0.63388 1.1423-2.2016 0.87242-3.6133-0.27794-1.454-0.01115-2.4936 0.63988-2.4936 0.61412 0 1.1166-0.93379 1.1166-2.0751 0-3.223 18.686-27.171 22.169-28.413 0.91813-0.32733 3.5764-2.3384 5.9072-4.469s5.962-4.6993 8.0692-5.7082c2.1072-1.0089 3.8365-2.137 3.8428-2.5069 6e-3 -0.36984 1.699-1.2187 3.7615-1.8862s5.7714-2.2775 8.242-3.5776c2.4706-1.3001 4.9382-2.3637 5.4836-2.3637 0.54532 0 3.6989-1.3411 7.008-2.9801 5.3959-2.6727 29.447-11.02 31.753-11.02 0.50738 0 3.6993-1.0592 7.0931-2.3537 6.5571-2.5011 21.845-6.4703 27.671-7.184 1.925-0.23585 4.625-0.85108 6-1.3672 2.4728-0.92818 18.694-3.9034 25.156-4.614 1.839-0.20222 5.3686-0.88079 7.8436-1.5079 5.5052-1.395 7.4999-1.8209 12-2.5626 3.4288-0.56506 5.3905-0.80607 15.5-1.9043 2.75-0.29874 7.25-0.97499 10-1.5028 12.099-2.3221 18.128-2.778 38.5-2.9115 15.371-0.10075 39.794 1.1627 45.159 2.3361 1.2878 0.28169 4.5914 0.74112 7.3414 1.021 4.5252 0.46049 10.705 1.4858 17.5 2.9037 3.4635 0.72267 8.0812 1.4209 18 2.7216 7.5791 0.99388 12.473 2.0809 22.5 4.9977 7.8436 2.2816 15.727 5.0533 20.979 7.3761 3.1734 1.4034 6.1266 2.5517 6.5625 2.5517 0.43597 0 2.9675 0.97574 5.6256 2.1683 2.6581 1.1926 5.0579 2.2372 5.3329 2.3214 0.275 0.08417 1.625 0.63426 3 1.2224 1.375 0.58815 4.3 1.7554 6.5 2.5939 2.2 0.83847 4.675 1.7896 5.5 2.1135s3.75 1.9203 6.5 3.5474 6.4625 3.7015 8.25 4.6097 3.25 2.05 3.25 2.5373 0.675 0.88606 1.5 0.88606 1.5 0.40598 1.5 0.90217c0 0.4962 1.2666 1.3437 2.8146 1.8834 3.3675 1.1739 16.185 13.539 16.185 15.614 0 0.80181 0.5625 2.0715 1.25 2.8215 1.8938 2.0661 3.5912 4.841 5.8034 9.4878 1.102 2.3147 2.4622 4.492 3.0227 4.8384 0.56053 0.34643 0.79116 2.0645 0.5125 3.8178-0.27866 1.7534 0.10043 4.9538 0.84241 7.1121 0.78885 2.2946 1.4008 8.7201 1.4735 15.474 0.14996 13.915 1.0369 23.049 2.2382 23.049 0.48642 0 1.6658-0.4282 2.6208-0.95156 3.5004-1.9182 8.9548-4.0772 18.236-7.2185 8.9778-3.0384 10.325-3.2183 24.5-3.2726 15.653-0.0599 14.951-0.1915 29 5.4392 1.1 0.44087 3.575 1.384 5.5 2.0957 1.925 0.71178 3.725 1.5561 4 1.8762s3.0641 2.114 6.1979 3.9865c3.1339 1.8725 5.4698 3.7736 5.191 4.2247-0.45448 0.73537 0.96247 1.2206 2.8001 0.959 0.37898-0.054 0.97181 0.79276 1.3174 1.8816 0.34558 1.0888 1.0349 1.9797 1.5318 1.9797 1.0825 0 10.962 9.9963 10.962 11.092 0 0.42101 0.57145 1.3601 1.2699 2.0869 1.9184 1.9963 6.7493 22.978 7.9022 34.321 0.29867 2.9384-1.6056 14.541-3.3392 20.345-1.0931 3.66-2.6787 9.1295-3.5236 12.155-0.84487 3.025-1.8482 5.725-2.2295 6-0.38138 0.275-1.3252 2.075-2.0974 4-2.0868 5.202-8.8538 16.802-13.179 22.591-2.0919 2.8-3.8035 5.3921-3.8035 5.7602 0 2.2875-15.85 21.544-25.75 31.285-1.7875 1.7587-3.25 3.5828-3.25 4.0536 0 0.47078-1.615 1.7257-3.589 2.7888-1.9739 1.063-4.3453 2.8943-5.2697 4.0695-0.92439 1.1752-3.4718 3.2851-5.661 4.6887-2.1892 1.4036-5.6919 4.3851-7.7838 6.6254l-3.8036 4.0734 2.8036 0.68414c3.7943 0.92591 16.984 6.1595 21.304 8.4528 1.925 1.0221 7.3267 3.5938 12.004 5.7148 7.7361 3.5083 12.853 6.6228 28.884 17.581 18.665 12.758 27.846 23.235 36.043 41.133 2.7712 6.05 5.0453 11.761 5.0537 12.691 8e-3 0.93004 0.41388 1.9374 0.90109 2.2385 0.4872 0.30111 1.6426 3.5902 2.5675 7.309 0.92492 3.7188 2.1368 8.5073 2.6931 10.641 1.3286 5.096 1.2863 17.536-0.0929 27.301-1.1868 8.4031-3.0493 16.509-3.9795 17.319-0.99425 0.86602-3.1009 4.3937-4.3296 7.25-0.65062 1.5125-1.5343 2.75-1.9637 2.75s-0.78076 0.8449-0.78076 1.8776c0 1.0326-0.675 2.4378-1.5 3.1224s-1.5 1.7623-1.5 2.3946-1.2845 2.7147-2.8544 4.6276c-1.5699 1.9128-3.5844 4.8977-4.4767 6.6331-0.89227 1.7354-2.2375 3.7704-2.9893 4.5223s-2.5653 3.2652-4.0298 5.5852c-3.2407 5.1336-26.134 28.313-29.74 30.112-1.4247 0.71077-4.1247 2.6224-6 4.248-1.8753 1.6256-4.8508 3.6542-6.6123 4.5079s-4.3722 2.636-5.8015 3.9607c-1.4294 1.3247-3.1955 2.4085-3.9248 2.4085s-1.8931 0.6833-2.5862 1.5184c-0.69311 0.83515-2.8857 2.2818-4.8724 3.2148s-6.1997 3.1502-9.3622 4.9272c-3.1625 1.777-5.7569 2.9179-5.7653 2.5352-8e-3 -0.38263-0.34592-0.24498-0.75 0.30589-0.40408 0.55088-1.8597 1.5191-3.2347 2.1516s-6.55 3.0128-11.5 5.2896c-12.873 5.9209-15.5 7.2851-15.5 8.048 0 0.37173-0.5625 0.67609-1.25 0.67637-1.4347 5.7e-4 -4.492 1.3471-21.562 9.4964-6.7716 3.2328-12.804 5.574-13.404 5.2026-0.62517-0.38637-0.80877-0.21615-0.42924 0.39795 0.39648 0.64152-0.64742 1.3575-2.5955 1.7801-1.7923 0.38885-3.5033 1.0891-3.8021 1.5561-0.29887 0.46701-1.4239 1.0088-2.5 1.2039-1.0761 0.19514-3.5316 1.0766-5.4566 1.9587-4.612 2.1135-25.462 8.737-27.503 8.737-0.87803 0-2.9681 0.70931-4.6446 1.5762-1.6765 0.86694-3.7916 1.7415-4.7003 1.9435-6.4182 1.4266-17.113 4.7597-19.402 6.0471-1.5125 0.85042-2.75 1.2407-2.75 0.86723s-0.5625-0.21533-1.25 0.35135c-1.1833 0.97533-15.177 5.4205-22.75 7.2267-8.0149 1.9115-19.612 2.8598-42.5 3.475-8.25 0.22176-22.65 0.66843-32 0.9926-29.585 1.0257-44.723 1.1428-54.259 0.41958zm61.259-31.37c15.23-1.5373 19.763-1.9564 38.256-3.5368 6.7406-0.57605 15.741-1.471 20-1.9888 4.2594-0.5178 13.369-1.6208 20.244-2.451 23.541-2.843 28.286-3.5453 29.392-4.3507 0.60921-0.4435 2.6826-0.91787 4.6076-1.0542s7.325-1.5356 12-3.1096c4.675-1.574 16.15-4.9964 25.5-7.6053s20.15-6.0571 24-7.6626 8.575-3.3824 10.5-3.9488c1.925-0.56636 4.0151-1.4487 4.6447-1.9608 0.62961-0.51212 1.5296-0.84389 2-0.73728 0.47039 0.10662 1.5303-0.0677 2.3553-0.38747 0.825-0.31972 3.9926-1.4744 7.0392-2.5659 5.9286-2.124 19.46-8.6147 32.461-15.571 4.4-2.3542 12.106-6.3915 17.124-8.9719 9.255-4.7589 25.6-15.222 26.209-16.777 0.18334-0.46786 0.79748-0.85065 1.3648-0.85065 1.7452 0 12.419-8.303 14.575-11.337 1.1197-1.576 4.246-5.1824 6.9474-8.0142 2.7014-2.8318 6.3428-7.2524 8.092-9.8237 1.7492-2.5713 3.7594-5.2713 4.4669-6 5.309-5.4679 14.189-22.875 16.745-32.825 1.7745-6.9074 2.086-10.28 1.6626-18-0.50961-9.2903-2.5682-19.5-5.1417-25.5-0.70767-1.65-2.4804-6.1872-3.9393-10.083-2.5499-6.8082-7.5241-15.303-15.176-25.917-3.746-5.1964-21.325-19.454-34.471-27.958-6.0012-3.8822-27.012-14.775-28.959-15.013-0.275-0.0337-3.2-1.0074-6.5-2.1638s-8.759-3.0242-12.131-4.1505l-6.1311-2.0478-4.3689 3.8883c-2.4029 2.1386-4.7064 3.901-5.1189 3.9167-0.4125 0.0156-0.75 0.40729-0.75 0.87039 0 0.46311 3.2625 2.077 7.25 3.5864s9.725 3.6777 12.75 4.8185 6.175 2.6418 7 3.3357 2.85 1.5744 4.5 1.9567c1.65 0.38229 4.575 1.9003 6.5 3.3733s5.3 3.7207 7.5 4.9949c2.2 1.2742 5.125 3.7017 6.5 5.3945 1.375 1.6928 4.401 5.2444 6.7245 7.8926 2.3235 2.6482 5.5194 7.4002 7.1021 10.56 1.5827 3.16 3.8386 7.3204 5.0131 9.2454 3.0935 5.0702 3.9784 7.3589 6.3405 16.398 3.0298 11.594 3.0362 11.648 3.2626 27.602 0.22272 15.694-1.1396 25.12-5.7455 39.753-2.383 7.5711-7.3308 19.17-8.6371 20.247-0.33347 0.275-1.3882 1.729-2.3438 3.231-4.1648 6.5463-13.947 16.276-25.216 25.083-13.038 10.189-17.573 13.265-25.915 17.58-4.3532 2.2519-8.6282 4.7177-9.5 5.4795-0.87179 0.76182-3.1601 2.1772-5.0851 3.1452-1.925 0.96807-3.725 2.042-4 2.3865-0.50173 0.62854-20.573 10.233-29 13.877-10.235 4.426-23.966 9.1937-31 10.764-4.125 0.92095-7.95 2.0124-8.5 2.4255-0.55 0.4131-3.0991 1.0244-5.6647 1.3584s-6.3213 1.5378-8.3461 2.675c-3.4183 1.9199-7.4892 1.9598-7.4892 0.0733 0-0.4322-2.25-0.56962-5-0.30538-4.3952 0.42232-4.9999 0.25337-4.999-1.3968 8.4e-4 -1.5141 1.4998-2.2379 7.75-3.7421 4.2619-1.0257 9.099-2.47 10.749-3.2095 2.8328-1.2697 11.826-4.4153 14-4.8968 3.5864-0.7943 28.532-12.794 35.773-17.208 3.4251-2.0879 7.447-4.4768 8.9375-5.3087 14.23-7.9416 24.937-15.456 30.909-21.69 5.9843-6.2477 20.805-28.227 25.998-38.556 3.7646-7.4873 9.3136-26.014 10.368-34.616 0.24609-2.0079 0.95498-7.4757 1.5753-12.151 2.0508-15.455-0.9707-34.408-7.46-46.793-1.2667-2.4176-1.4682-2.2017-8.4625 9.0708-3.9407 6.3511-8.3705 13.049-9.8441 14.885-5.969 7.4355-43.168 43.356-48.294 46.635-3.025 1.9346-9.1 6.2692-13.5 9.6326-13.315 10.178-20.892 14.296-35 19.02-13.303 4.4549-17.982 5.5346-32.5 7.4984-8.4948 1.1491-43.676 0.54381-49-0.84306-1.925-0.50147-8-2.1071-13.5-3.568s-10.951-2.852-12.112-3.0913c-1.1618-0.23931-8.5868-2.737-16.5-5.5504-7.9132-2.8134-16.188-5.7072-18.388-6.4306-5.1504-1.6936-14.471-5.515-21.679-8.8887-7.4327-3.4786-13.524-4.4156-35.821-5.5104-10.175-0.49958-21.875-1.6609-26-2.5808-19.139-4.2678-42.61-14.58-52.589-23.105-2.8197-2.4089-5.5482-4.3798-6.0634-4.3798-0.51518 0-2.5939-2.173-4.6193-4.829-2.0254-2.6559-8.5304-9.572-14.455-15.369-16.64-16.28-27.06-27.396-35.783-38.171-7.7156-9.5303-18.49-24.256-18.49-25.27 0-0.27184-1.0788-1.9267-2.3974-3.6775-3.6945-4.9056-13.908-22.383-17.639-30.183-1.8415-3.85-3.45-7.151-3.5745-7.3354-0.12445-0.18451-1.7253 0.32146-3.5575 1.1244-1.8322 0.80291-5.3562 2.0181-7.8312 2.7004-13.615 3.7533-43.339 21.071-62.167 36.22-9.7502 7.8447-26.956 24.778-31.288 30.791-10.127 14.059-13.971 21.336-10.295 19.491 0.6875-0.34513-0.25331 0.70766-2.0907 2.3395-4.3516 3.8649-9.9566 19.831-13.783 39.262-2.7487 13.958-2.7524 14.033-1.1621 23.935 3.3962 21.147 17.699 41.733 45.286 65.18 9.941 8.4492 27.151 21.013 41 29.93 4.95 3.1873 10.8 7.0781 13 8.6462 10.523 7.5005 32.976 16.671 43.5 17.766 8.2041 0.85387 20.37 3.2122 30.5 5.9121 14.318 3.8162 22.311 5.2489 36.5 6.5417 6.875 0.62642 17.607 2.0069 23.849 3.0677 6.2422 1.0608 14.432 1.9288 18.199 1.9288 3.7672 0 11.935 0.64444 18.151 1.4321 6.2157 0.78765 17.318 1.667 24.672 1.954 7.3539 0.28704 13.602 0.75334 13.885 1.0362 1.1927 1.1927 66.306 0.46381 79.744-0.89269zm-269-36.508c-1.65-1.1045-3.8175-2.0112-4.8167-2.0148-0.9992-4e-3 -3.2492-1.0794-5-2.3905-1.7508-1.3112-4.2836-2.7194-5.6284-3.1293-1.3448-0.40996-3.8198-1.5816-5.5-2.6036-1.6802-1.022-4.0156-2.283-5.1897-2.8021-2.4971-1.1041-14.528-9.6727-22.257-15.852-2.9658-2.3711-7.4658-5.4997-10-6.9525-5.2481-3.0086-19.128-13.58-23.608-17.981-5.7162-5.6154-12.012-13.13-14.5-17.309-1.375-2.309-3.5253-5.3879-4.7784-6.842-3.7694-4.3741-4.0621-4.8034-7.0393-10.325-8.8813-16.47-9.5674-28.101-2.9686-50.319 4.0957-13.79 5.9297-19.082 8.4915-24.5 2.9179-6.171 12.554-21.141 14.819-23.02 0.81181-0.67374 1.476-1.7551 1.476-2.4029 0-0.64786 2.1825-3.6303 4.8501-6.6276s5.566-6.8385 6.441-8.536c0.87505-1.6975 3.08-4.2391 4.8999-5.6481s4.2661-3.4736 5.436-4.588c2.0547-1.9574 18.695-13.261 26.859-18.244 10.843-6.619 22.68-12.168 23.726-11.122 1.044 1.044-1.353 3.2476-3.9117 3.5961-0.98984 0.13483-2.2497 1.2668-2.7997 2.5155-0.55 1.2487-3.0641 3.3223-5.587 4.6079-7.8392 3.9948-37.051 34.815-46.383 48.935-6.1897 9.3664-13.985 28.256-15.447 37.43-2.1053 13.212-2.4677 28.413-0.80304 33.685 0.85441 2.7057 1.8562 6.7194 2.2261 8.9194s1.0234 4.45 1.4522 5c0.42875 0.55 1.3369 3.475 2.018 6.5 2.3085 10.252 9.4495 22.461 23.286 39.813 2.3303 2.9223 8.287 8.5061 13.237 12.408s11.25 9.1181 14 11.591c5.5299 4.972 23.273 17.007 33.753 22.894 4.2365 2.3799 6.6548 4.3525 6.4898 5.2935-0.39728 2.2652-3.8754 2.2755-7.2426 0.0214zm524.17-37.688c-1.2135-1.2135-0.7061-2.2216 3.5833-7.1184 2.3375-2.6685 6.275-7.2502 8.75-10.182s5.021-5.8644 5.6577-6.5178c4.6039-4.7244 13.031-23.04 15.881-34.516 1.009-4.0626 1.874-6.6864 2.4727-7.5 1.3945-1.8953 4.8894-13.01 5.5027-17.5 0.33804-2.475 0.84731-10.416 1.1317-17.646 0.44931-11.423 0.23545-14.149-1.6316-20.803-2.539-9.0484-9.3483-26.002-11.066-27.551-0.30491-0.275-1.6193-2.3-2.9208-4.5-5.338-9.0227-21.155-26.767-26.778-30.039-2.897-1.6863-4.4703-4.4843-2.5-4.446 1.2777 0.0248 9.3432 2.9823 12.293 4.5076 6.2437 3.2288 22.833 18.693 30.872 28.777 8.1903 10.275 11.137 14.936 16.29 25.765 9.3557 19.663 10.184 34 3.426 59.305-1.9913 7.4565-3.7964 11.608-7.3832 16.981-5.4061 8.098-6.7783 10.328-8.0936 13.15-0.51264 1.1-1.9945 3.2003-3.2929 4.6673-3.5931 4.0595-6.9599 7.9346-10.58 12.177-1.8043 2.1145-3.2806 3.5539-3.2806 3.1985 0-0.35537-1.0125 0.41573-2.25 1.7136s-4.05 3.6809-6.25 5.2956c-2.2 1.6148-4.3599 3.5011-4.7997 4.1918s-1.4365 1.2559-2.2148 1.2559-1.8968 0.9-2.4855 2-1.9507 2-3.0267 2-2.5184 0.9-3.2054 2c-1.2642 2.0244-2.8837 2.5509-4.1013 1.3333zm-366.17-47.953c-1.1-0.15887-8.075-1.0106-15.5-1.8928s-14.625-1.8006-16-2.0411c-1.375-0.24043-7-0.70027-12.5-1.0219s-12.25-1.1811-15-1.91-8.8982-1.825-13.663-2.4358c-8.8529-1.1349-25.949-5.9087-31.337-8.7504-7.6709-4.0454-15.301-9.5968-16.348-11.894-1.855-4.0713-1.3839-9.7916 1.1149-13.537 6.9423-10.405 31.712-19.739 50.483-19.022 1.8756 0.0716 3.25 0.65519 3.25 1.38 0 1.4003-3.0491 2.8753-10.5 5.0792-7.5314 2.2277-18.388 7.6201-20.524 10.194-0.70437 0.84872-1.454 3.7051-1.6658 6.3474l-0.38515 4.8043 5.9423 3.1672c5.4683 2.9146 11.092 4.4964 20.133 5.6631 9.7421 1.2571 19.569 2.9384 29.5 5.0469 12.472 2.6482 26.587 4.9942 27.84 4.6274 0.46211-0.13526 8.7871 0.64083 18.5 1.7246 9.7129 1.0838 21.485 2.2109 26.16 2.5046 4.675 0.29373 9.85 0.76081 11.5 1.038 1.65 0.27713 6.375 0.70451 10.5 0.94972 4.125 0.24522 8.7668 0.92992 10.315 1.5216 1.5483 0.59164 5.4592 1.0757 8.691 1.0757 6.3186 0 7.6303 0.76652 5.7119 3.3379-1.019 1.3659-4.0763 1.7125-18.718 2.1221-17.928 0.50148-44.361 1.5056-51.5 1.9564-2.2 0.1389-4.9 0.12257-6-0.0363zm136.5-24.829c1.375-0.31987 5.425-1.021 9-1.558 12.5-1.8778 14.178-2.2932 14.694-3.6383 0.28599-0.74527 1.5968-1.355 2.913-1.355 1.3162 0 2.393-0.41968 2.393-0.93261 0-0.76123 2.6924-2.1398 5-2.5602 3.4876-0.63524 16.341-10.105 24.075-17.738 9.9994-9.8682 13.825-14.745 15.95-20.336 0.81025-2.1311 0.64876-2.4276-1.3001-2.3865-1.5065 0.0317-3.3557 1.6563-5.7252 5.03-1.925 2.7407-6.65 7.6088-10.5 10.818-3.85 3.2092-8.8323 7.5832-11.072 9.72-4.5258 4.3184-14.897 10.941-20.717 13.229-2.586 1.0167-3.3823 1.7409-2.5084 2.2811 2.2126 1.3675-0.7981 3.2873-4.9528 3.1582-5.3722-0.16694-13.563 1.7759-14.844 3.5213-0.78156 1.0642-1.9244 1.2818-3.998 0.76142-1.597-0.40081-2.5265-0.35467-2.0657 0.10254 0.46081 0.4572-3.1401 1.3631-8.002 2.0131l-8.8399 1.1818 9-0.36528c4.95-0.20091 10.125-0.62701 11.5-0.94689zm8.5-4.1215c6.2679-1.7441 8.115-1.7071 3.5 0.0701-1.925 0.74131-4.625 1.3418-6 1.3345-1.4976-8e-3 -0.4951-0.57122 2.5-1.4046zm-7.3125 0.88702c-0.72187-0.28887-1.5844-0.25335-1.9167 0.0789-0.33229 0.33229 0.25834 0.56864 1.3125 0.52522 1.165-0.048 1.4019-0.28494 0.60417-0.60416zm-80.237-4.8456c6.2976-0.83193 13.498-2.1525 16-2.9346 8.9481-2.7966 22.521-7.729 25.509-9.2699 9.1588-4.7234 26.349-20.338 36.541-33.193 1.925-2.4278 4.6547-5.8003 6.066-7.4942s5.2363-6.5863 8.5-10.872c3.2637-4.2855 7.4149-9.6855 9.2249-12 6.5451-8.3693 13.212-18.662 17.071-26.356 7.0984-14.152 14.138-29.326 14.138-30.476 0-0.62034 1.5605-5.0282 3.4678-9.7953 6.1139-15.281 7.2535-21.483 10.313-56.128 0.98068-11.105-0.87878-29.648-3.7258-37.154-2.8946-7.6321-9.6731-15.01-16.85-18.34-5.4842-2.5448-8.9578-3.3446-32.272-7.4306-5.8123-1.0186-12.337-2.3245-14.5-2.902-2.1627-0.57744-7.7573-1.3015-12.432-1.6091s-11.875-0.84306-16-1.19c-9.9728-0.83887-18.141-0.82818-32 0.0419-12.263 0.76988-37.817-0.49378-57.5-2.8435-6.6-0.78788-16.95-1.9413-23-2.5632s-14.15-1.7308-18-2.4643c-6.3483-1.2095-17-2.8372-17-2.5978 0 0.0533-4.725-1.2191-10.5-2.8276s-16.35-4.5228-23.5-6.4762-14.35-3.985-16-4.5147-5.925-1.461-9.5-2.0695c-8.4561-1.4395-15.541-3.753-17.045-5.5662-0.65968-0.79486-2.6293-1.4452-4.377-1.4452-1.7477 0-3.6051-0.39019-4.1276-0.86709-0.5225-0.47689-3.0622-1.566-5.6438-2.4202-3.5545-1.1761-4.9285-1.269-5.6609-0.38292-2.3686 2.8661-5.5599 14.191-6.6608 23.636-1.6204 13.904 0.1101 47.138 3.5317 67.824 2.2285 13.473 13.007 52.965 18.343 67.21 3.0278 8.0822 24.941 51.453 29.946 59.269 2.0318 3.1732 3.6943 6.1572 3.6943 6.6311 0 1.3919 11.958 17.152 17.247 22.731 2.6756 2.8223 5.9382 6.6473 7.2502 8.5 2.9703 4.1946 35.692 38.615 36.849 38.761 0.4651 0.0589 2.1552 1.0396 3.7558 2.1794 3.5839 2.552 15.103 5.9486 17.79 5.2458 1.0868-0.28421 3.5907 0.0162 5.5642 0.66747 8.8957 2.9358 38.514 3.7288 55.494 1.4858zm131.05-10.971c0.68469-0.825 1.0199-1.5 0.74489-1.5s-1.0602 0.675-1.7449 1.5-1.0199 1.5-0.74489 1.5 1.0602-0.675 1.7449-1.5zm-12.105-18.877c1.3174-1.4086 2.7198-2.3605 3.1164-2.1154 0.39655 0.24508 1.5686-0.55629 2.6046-1.7808l1.8836-2.2264-5 4 1.844-2.1826c1.0142-1.2004 2.3642-1.9845 3-1.7424 1.235 0.4702 27.767-25.881 31.54-31.325 1.2388-1.7875 2.7842-3.2626 3.4342-3.278 1.2566-0.02973 18.682-25.948 18.682-27.787 0-0.5971 0.6274-1.4455 1.3942-1.8853 1.4043-0.8055 8.139-12.379 11.521-19.8 15.935-34.962 27.298-79.913 28.76-113.77 0.43176-10.002 0.28088-15.493-0.46715-17-0.60769-1.2246-1.2722-3.1266-1.4767-4.2266-0.63437-3.4121-2.8945 9.2173-2.6098 14.583 0.15579 2.9352-0.20091 5.3481-0.8499 5.7492-0.6151 0.38015-1.4369 3.6109-1.8262 7.1795-0.38932 3.5686-0.97491 6.9383-1.3013 7.4883-0.32638 0.55-0.73031 1.9945-0.89761 3.2101-0.16731 1.2156-1.1912 4.9867-2.2753 8.3803-1.0841 3.3936-1.9714 6.6741-1.9718 7.2899-1e-3 1.8162-6.4108 21.038-12.045 36.12-2.8764 7.7-5.2934 14.675-5.371 15.5s-1.1384 3.3902-2.3573 5.7004-2.9394 6.3602-3.8232 9c-2.1692 6.4791-12.379 26.952-16.24 32.562-1.7152 2.493-4.55 7.1662-6.2996 10.385-4.8075 8.8446-17.326 26.238-27.965 38.852-6.1473 7.2894-17.067 21.301-19.528 25.057-1.7582 2.6834-1.7547 2.7188 0.16657 1.684 1.0794-0.58144 3.0405-2.2096 4.358-3.6182zm90.831-14.666c3.7257-1.2224 7.235-2.5836 7.7985-3.0248 0.56348-0.44121 3.1954-1.5392 5.8486-2.44 4.3048-1.4615 9.3891-4.0877 20.627-10.654 9.702-5.6693 35.658-30.438 40.3-38.456 0.95576-1.651 1.1696-1.5343-3.7997-2.0742-10.484-1.139-10.755-1.0781-13.017 2.9281-2.0608 3.6491-10.423 12.771-16.285 17.765-1.6141 1.375-5.8064 5.0312-9.3163 8.125-10.386 9.1549-23.54 17.846-37.132 24.535-7.0125 3.451-12.75 6.4389-12.75 6.6399 0 0.86647 11.515-1.3053 17.726-3.3434zm-30.726-28.015c0-0.58246-0.45-0.7809-1-0.44098s-1 0.81648-1 1.059 0.45 0.44098 1 0.44098 1-0.47656 1-1.059zm14.009-12.948c2.0783-1.6461 4.0853-2.9928 4.46-2.9928 1.1868 0 14.657-8.265 24.014-14.734 4.9592-3.4287 12.167-8.4006 16.017-11.049 12.731-8.7564 42.855-33.464 51.788-42.477 7.8968-7.9672 17.669-19.548 21.712-25.732 1.43-2.1869 4.3356-5.7602 7.3253-9.0086 2.7346-2.9713 4.6362-6.6807 8.9708-17.5 6.4057-15.989 8.851-29.388 8.8096-48.272-0.0144-6.5363-0.57369-9.1371-3.5557-16.534-4.3703-10.84-7.5602-16.537-9.6376-17.21-0.87321-0.28313-3.108-1.8722-4.9662-3.5312-10.056-8.978-23.649-11.443-46.379-8.412-4.3928 0.58585-23.293 8.4657-28.31 11.803-3.0861 2.0529-3.2435 2.4634-3.25 8.4755l-7e-3 6.3181 2.8082-1.9996c15.35-10.93 35.529-14.231 48.024-7.8569 2.9327 1.4962 6.1996 2.7203 7.2598 2.7203 1.0602 0 2.6982 0.9 3.6401 2s2.2386 2 2.8816 2 1.9084 1.8475 2.8119 4.1056c0.90349 2.2581 2.2323 4.6952 2.9529 5.4158 0.7206 0.72059 2.1061 4.5849 3.0789 8.5873 2.9418 12.104 0.86553 25.587-6.3736 41.391-7.5694 16.525-10.724 22.02-12.46 21.706-0.89276-0.16161-1.6233 0.20804-1.6233 0.82143 0 0.6134-0.5625 1.6869-1.25 2.3855-0.6875 0.69861-2.375 2.761-3.75 4.5832-4.5923 6.0856-7.4684 9.5618-11.477 13.872-2.1875 2.3518-4.6843 5.3539-5.5486 6.6714-3.0106 4.5894-31.701 29.641-35.724 31.192-0.6875 0.26521-1.25 1.0368-1.25 1.7147 0 0.67788-1.2128 1.7851-2.6951 2.4604s-5.7751 3.3351-9.5396 5.9105c-3.7645 2.5754-9.2554 6.2576-12.202 8.1826-14.185 9.2668-16.017 10.924-21.063 19.048-2.75 4.4273-7.091 11.345-9.6466 15.373-7.9216 12.486-8.028 12.027 1.7476 7.5322 4.7461-2.1823 10.33-5.3147 12.408-6.9607zm0.43755 6.5072c5.1914-2.475 9.7597-4.5 10.152-4.5s2.1053-1.0446 3.8072-2.3213c1.7019-1.2767 5.5694-3.6761 8.5944-5.332 12.39-6.7822 28.938-16.742 28.517-17.163-0.24783-0.24784-3.728 1.503-7.7337 3.8908s-9.5331 5.5357-12.283 6.9953-7.25 3.8937-10 5.409-10.175 5.4807-16.5 8.8119c-18.265 9.6196-20.781 11.946-4.5534 4.2096zm54.741-31.183c-0.72187-0.28887-1.5844-0.25335-1.9167 0.0789-0.33229 0.33229 0.25834 0.56864 1.3125 0.52522 1.165-0.048 1.4019-0.28494 0.60417-0.60416zm-17.688-49.127c13.679-8.8429 22.055-15.897 42.838-36.079 11.805-11.463 25.493-31.728 31.243-46.255 4.98-12.581 2.8319-26.896-5.193-34.607-2.4328-2.3375-5.0904-4.25-5.9057-4.25s-1.4824-0.41807-1.4824-0.92904c0-1.6292-11.274-4.2807-17.796-4.1854-9.0629 0.13249-18.045 2.4977-25.029 6.5909-3.3458 1.9609-6.36 4.0132-6.6984 4.5607-0.33837 0.54749-1.0341 0.73654-1.5461 0.4201-0.53027-0.32772-0.96894 1.9247-1.0193 5.2337-0.16428 10.796-0.66751 20.207-1.445 27.024-0.42564 3.7318-0.85732 9.935-0.95929 13.785-0.10198 3.85-0.90191 9.7-1.7776 13s-1.8949 8.25-2.2649 11c-0.79194 5.8861-5.0344 21.696-6.984 26.027-1.7178 3.8155-6.38 16.626-8.0885 22.224l-1.2973 4.2511 3.2025-1.6436c1.7614-0.90398 6.3525-3.68 10.203-6.1688zm-216-121.08c7.6051-1.3965 15.831-1.4586 15-0.11333-0.52308 0.84636 3.9702 1.5767 6.793 1.1041 0.43616-0.073 4.0362-0.37262 8-0.66579 9.8784-0.73061 26.707-3.5737 26.707-4.512 0-0.42249-17.212-0.81545-38.25-0.87325s-40.275-0.29681-42.75-0.53114-14.683-0.67676-27.129-0.98319-26.171-1.0059-30.5-1.5544-9.896-1.2483-12.371-1.555c-2.475-0.30678-7.65-1.1724-11.5-1.9237-3.85-0.75126-9.3263-1.6132-12.17-1.9155-5.5911-0.59435-21.557-3.9872-25.438-5.4058-1.3157-0.4809-6.6672-1.671-11.892-2.6446-5.225-0.97366-11.75-2.7983-14.5-4.0549s-9.684-3.7921-15.409-5.6347c-6.2234-2.003-10.577-3.9532-10.827-4.8501-0.23015-0.825-2.2962-2.7074-4.5912-4.183-6.9583-4.4741-15.328-12.536-18.694-18.006-8.7956-14.295-7.1653-24.454 5.9545-37.106 3.8241-3.6877 7.2486-6.705 7.61-6.705 0.36137 0 2.232-1.575 4.157-3.5s4.06-3.5 4.7445-3.5 2.552-1.1328 4.15-2.5172 4.9305-3.4909 7.4055-4.681c2.475-1.1901 4.8211-2.6449 5.2135-3.2328 0.39243-0.58793 0.84243-0.92741 1-0.75441 0.45865 0.5036 3.705-0.78247 12.786-5.0655 4.675-2.2048 12.325-5.1206 17-6.4796 16.158-4.6967 26.028-7.2172 30.755-7.853 6.8524-0.92176 7.901-1.1621 10.021-2.2965 1.048-0.56088 2.7647-0.9705 3.8149-0.91027 2.1156 0.12133 16.486-2.8591 20.409-4.233 1.375-0.48146 5.65-1.1317 9.5-1.4449s8.125-0.79366 9.5-1.0676 3.625-0.72695 5-1.0067c3.7517-0.76336 16.53-2.4174 24.988-3.2343 6.078-0.58711 7.5526-1.0624 7.8333-2.5248 0.31742-1.654-0.33709-1.7559-7.9875-1.2443-10.819 0.72356-17.816 1.4093-25.833 2.5322-3.575 0.50066-8.525 1.167-11 1.4808s-6.1548 0.78009-8.1774 1.0363c-21.422 2.7135-45.172 9.0863-73.823 19.808-3.575 1.3379-9.875 3.6899-14 5.2267s-8.625 3.5628-10 4.5021c-1.375 0.93933-4.75 2.704-7.5 3.9214-15.512 6.8674-26.315 13.675-33.162 20.898-15.497 16.347-18.275 27.024-10.945 42.069 4.3024 8.8303 5.3362 10.061 12.001 14.284 2.8079 1.7791 5.7249 4.0793 6.4821 5.1114 1.7444 2.3778 25.68 13.907 34.194 16.47 17.583 5.2938 22.952 6.7889 41.93 11.677 24.29 6.2567 46.18 9.0966 72.449 9.3991 9.322 0.10737 17.108 0.35465 17.303 0.54953 0.8263 0.8263 40.267-0.29944 45.748-1.3058zm40-9.4567c18.685-1.0623 25.661-1.5973 28.5-2.1859 1.375-0.28509 5.65-0.94378 9.5-1.4638 6.1981-0.83712 22.194-4.0167 34.177-6.7935 2.2971-0.53231 9.0471-2.8592 15-5.1709s12.848-4.9667 15.323-5.9c3.7975-1.432 4.5453-2.161 4.7902-4.6697 0.24023-2.4608-0.69384-3.9632-5.4231-8.7228-3.1423-3.1625-6.0672-5.75-6.4997-5.75-0.43256 0-1.8172-1.0658-3.0769-2.3685-2.6207-2.71-12.869-8.2099-17.224-9.244-1.6133-0.38303-4.0883-1.2992-5.5-2.0358-1.4117-0.73668-3.8337-1.3422-5.3824-1.3456-1.5487-3e-3 -3.5888-0.41991-4.5338-0.92561-6.5642-3.513-29.438-3.124-53.651 0.91258-27.993 4.6669-35.781 7.7373-46.723 18.421l-4.0089 3.9142 0.68472 8.7528c0.75615 9.6659-0.46111 13.807-4.7128 16.031-4.0899 2.1402-12.74 8.0716-12.738 8.7346 3e-3 0.87631 45.194 0.73622 61.498-0.19064zm-96.352-2.6213c7.436-0.94302 25.889-9.1039 29.328-12.971 2.114-2.3766 2.4046-6.6826 1.0297-15.255-1.3246-8.2589 0.89147-12.166 11.459-20.202 10.156-7.724 21.534-12.585 33.036-14.114 2.475-0.32899 8.775-1.2166 14-1.9724 5.225-0.75582 14.45-1.9144 20.5-2.5745 6.05-0.66017 11.675-1.3338 12.5-1.497s4.875-0.35959 9-0.43654c8.6048-0.1605 7.0478-1.5588-2.6912-2.417-3.1949-0.28151-7.1588-0.70836-8.8088-0.94858-20.159-2.9348-35.625-3.851-48.409-2.8676-15.4 1.1846-17.865 1.5221-31.091 4.2577-12.989 2.6867-23.047 5.3817-26.018 6.9719-1.3652 0.73062-2.4822 1.1512-2.4822 0.93456 0-0.34943-2.5289 0.50525-9 3.0416-7.5679 2.9663-15.738 7.5016-17.462 9.693-3.1261 3.9742-2.6394 7.8883 1.462 11.756 2.7142 2.5598 3.5 4.0926 3.5 6.8271 0 5.1923-4.1802 9.0761-14.152 13.149-8.8234 3.6036-30.212 10.589-32.423 10.589-0.71891 0-1.5746 0.4328-1.9015 0.96178-0.32692 0.52897 1.8344 1.6678 4.803 2.5308 8.0045 2.327 8.9245 2.4805 24.643 4.1118 7.9584 0.82595 14.582 1.6141 14.719 1.7514 0.29669 0.29669 5.3334-0.16333 14.458-1.3205zm187.85-4.4484c3.575-0.81524 9.4837-2.13 13.13-2.9218 7.1938-1.5618 17.146-6.3858 34.447-16.697 14.346-8.5504 24.536-16.844 28.631-23.304 4.69-7.3978 4.9613-8.3249 4.9278-16.838-0.0313-7.9414-0.22478-8.4774-8.3074-23.015-3.3177-5.9672-12.567-14.161-20.968-18.576-2.9482-1.5492-7.3239-4.0739-9.7238-5.6104-2.3999-1.5366-6.2249-3.599-8.5-4.5831-2.2751-0.98417-7.9712-3.6188-12.658-5.8548-8.8369-4.2159-13.978-5.7317-13.978-4.1212 0 0.51358 0.45221 0.93378 1.0049 0.93378 0.5527 0 3.3369 1.125 6.1872 2.5 2.8502 1.375 5.7355 2.5 6.4118 2.5s1.3795 0.3375 1.5628 0.75c0.18333 0.4125 1.9083 1.5278 3.8333 2.4783 12.344 6.0957 21.039 11.78 28.345 18.531 4.9848 4.6065 13.153 14.24 12.074 14.24-0.42208 0 0.16788 1.0125 1.311 2.25 2.333 2.5256 4.3335 8.825 3.7555 11.826-0.21463 1.1145 0.0468 1.713 0.5992 1.3716 0.59953-0.37053 0.78568 0.68669 0.47949 2.7233-1.8594 12.367-2.2494 13.829-3.6898 13.829-0.54508 0-2.8772 2.0843-5.1826 4.6319-8.267 9.1354-24.031 19.906-42.692 29.169-6.875 3.4127-13.175 6.6124-14 7.1105-0.825 0.49809-5.6625 2.5835-10.75 4.6342-5.0875 2.0507-9.25 3.9508-9.25 4.2224 0 0.56306 3.6576-0.0506 13-2.181zm-306.71-23.337c0.89052-3.1625 2.7004-6.875 4.0221-8.25 3.0786-3.203 7.5464-7 8.2365-7 0.56196 0 2.4005-1.4317 5.2482-4.087 2.1468-2.0017 10.86-7.913 11.664-7.913 0.33107 0 2.275-0.73315 4.3198-1.6292 3.75-1.6433 10.623-4.2284 28.44-10.697 8.2332-2.9893 15.934-5.2032 28.902-8.3086 3.2707-0.78325 21.999-3.8977 42.376-7.0469 5.8306-0.9011 56.832-1.0594 70-0.2172 4.95 0.31658 11.7 1.0665 15 1.6665 3.3 0.6 8.475 1.3639 11.5 1.6975 5.5724 0.61456 9.5 1.2517 9.5 1.5411 0 0.0873 1.35 0.36632 3 0.62003 4.1123 0.63231 17.549 4.2653 20 5.4074 1.1 0.51266 4.25 1.4147 7 2.0045 5.5995 1.2009 15.5 5.723 15.5 7.0797 0 0.48546 0.52337 0.88265 1.163 0.88265s5.8993 2.5875 11.688 5.75c7.762 4.2405 12.313 7.5641 17.337 12.66 6.6769 6.7732 8.2758 7.7535 5.341 3.2745-1.4153-2.16-1.1489-2.5271 7.0517-9.7148l8.5226-7.47-0.53655-8.6901c-0.53575-8.6774-3.1349-16.196-6.2608-18.11-0.71831-0.43983-1.306-1.2023-1.306-1.6944s-1.5728-2.6072-3.4952-4.7003-3.4974-4.433-3.5-5.1997c-3e-3 -0.76672-1.6923-2.9051-3.7548-4.752-3.6991-3.3124-20.568-14.354-21.929-14.354-0.38548 0-3.4278-1.3092-6.7607-2.9092-5.1196-2.4579-11.439-5.0593-22.06-9.0818-4.0954-1.551-16.118-4.9632-19.5-5.5341-5.784-0.9766-7.5-1.3141-7.5-1.4749 0-0.19102-2.7254-0.68458-8.3568-1.5134-5.9289-0.87258-75.563-1.0209-86.143-0.18347-9.875 0.78158-12.929 1.181-15 1.9615-2.1679 0.81717-10.099 1.6862-20.998 2.3007-5.2264 0.29469-11.527 0.9571-14.002 1.472s-5.625 1.148-7 1.4067-6.775 1.4179-12 2.5757-10.4 2.2446-11.5 2.415c-1.1 0.1704-2 0.40848-2 0.52906 0 0.12058-1.5716 0.44046-3.4924 0.71086-1.9208 0.27039-3.7208 0.8497-4 1.2874-0.27917 0.43766-2.8701 1.1174-5.7576 1.5106-3.1327 0.42656-5.25 1.2159-5.25 1.9573 0 0.71744-3.0635 1.9695-7.25 2.9631-15.829 3.7567-27.807 8.7488-42.25 17.609-19.212 11.786-28.453 29.272-23.518 44.498 2.7643 8.5276 3.559 10.046 7.8213 14.943 5.5993 6.4337 16.213 15.434 18.282 15.503 1.0923 0.0367 2.0901-1.7368 3.2052-5.6968zm312.21-100.25c-0.33992-0.55-1.2852-1-2.1007-1-0.81547 0-4.2764-1.2914-7.691-2.8698-5.2929-2.4467-12.273-5.1123-14.958-5.7126-0.4125-0.09221-1.0875-0.27719-1.5-0.41107s-1.049-0.20296-1.4145-0.1535c-0.36546 0.04945-2.8405-0.51041-5.5-1.2441-2.6595-0.73373-5.7355-1.3755-6.8355-1.4261-2.353-0.10826-7.1345-0.82784-10.098-1.5197-1.154-0.2694-4.529-0.78046-7.5-1.1357s-10.127-1.3594-15.902-2.2316c-12.354-1.8657-31.548-2.1474-33.208-0.4874-1.6651 1.6651 0.13393 2.0256 13.208 2.6463 6.325 0.30026 12.625 0.74225 14 0.98218 1.375 0.23994 6.325 0.93102 11 1.5358 12.651 1.6365 27.115 4.0467 30.397 5.0652 1.5931 0.49445 3.2713 0.66739 3.7293 0.38431 0.45803-0.28308 1.7964 1e-3 2.9741 0.63132 1.6508 0.88347 1.9709 0.8703 1.3975-0.05748-0.40909-0.66192 0.43313-0.43234 1.8716 0.51018 1.4385 0.94252 3.3172 1.4444 4.1751 1.1152 0.89601-0.34383 1.2997-0.17786 0.9487 0.39005-0.36801 0.59545 1.1784 0.98854 3.889 0.98854 2.475 0 4.8023 0.4892 5.1719 1.0871s1.5211 0.86504 2.559 0.59362 1.8871-0.13033 1.8871 0.31354c0 0.44387 1.6875 1.2552 3.75 1.803 5.0556 1.3428 6.4858 1.3932 5.75 0.20269z" fill="#333"/>
</svg>
